<?xml version="1.0" encoding="UTF-8" standalone="no"?>
<!DOCTYPE svg PUBLIC "-//W3C//DTD SVG 1.1//EN" "http://www.w3.org/Graphics/SVG/1.1/DTD/svg11.dtd">
<!--A monogram combining the three letters S, D and J, composed of the musical bass and treble clefs, in the shape of a heart -->
<svg version="1.1" xmlns="http://www.w3.org/2000/svg" xmlns:xlink="http://www.w3.org/1999/xlink" preserveAspectRatio="xMidYMid meet" viewBox="0 0 640 640" width="1600" height="1600">
  <rect x="0" y="0" width="640" height="640" fill="#ffffff"/>
  <defs>
    <path d="M320.87 272.39C319.57 262.98 320.76 254.79 322.34 249.31C325.71 237.63 326.71 235.36 332.86 226.48C337.5 219.78 343.22 214.2 357.85 209.13C372.47 204.07 388.37 213.21 391.74 215.87C395.1 218.52 415.74 237.23 419.31 265.58C422.89 293.92 417.24 331 412.71 344.08C408.19 357.16 400.63 382.78 381.1 402.12C373.88 409.27 361.12 418.31 345.56 424.34C333.08 429.19 318.35 432.8 301.38 435.18C323.27 434.36 344.36 429.86 364.67 421.68C395.12 409.41 420.48 377.58 429.03 354.9C438.47 329.84 439.7 296.55 439.87 294.11C440.4 286.09 440.52 256.44 424.47 229.88C408.41 203.32 388.02 200.27 373.61 200.55C359.2 200.82 347.15 206.47 334.91 222.77C330.08 229.2 328.27 232.03 324.3 242.29C320.32 252.55 318.57 263.99 318.84 270.39C319.18 278.69 319.43 285.18 321.38 291.56C323.32 297.94 330.34 307.21 339.5 306.25C348.67 305.3 357.09 294.96 354.71 283.86C352.28 272.54 342.79 265.83 335.14 267.24C330.05 268.18 326.33 273.22 324 282.38C322.46 279.65 321.42 276.32 320.87 272.39Z" id="b3t6IxN83l">
    </path>
    <path d="M324.2 398.14C324.08 385.44 317.93 381.99 315.57 379.7C311.33 375.58 294.04 370.54 280.81 379.18C267.58 387.82 259.49 406.52 272.18 423.01C284.88 439.5 311.88 435.3 329.25 426.18C346.62 417.06 349.49 399.38 348.91 385.58C347.36 348.95 272.31 332.11 244.89 312.57C229.94 301.92 222.42 286.45 219.4 272.71C216.87 261.23 216.83 253.84 217.34 246.13C217.85 238.42 219.68 228.34 226.24 219.85C232.54 211.7 243.66 202.66 257.04 200.66C284.36 196.59 301.97 210.81 310.98 224.41C319.98 238 320.45 244.98 320.18 257.05C319.17 302.84 311.9 335.71 310.52 361.61C309.14 387.52 298.15 459.85 296.56 472.81C294.96 485.77 293.23 492.85 287.24 500.74C281.24 508.63 269.92 514.95 263.12 516.12C256.33 517.29 248.31 517.41 241.59 514.79C234.86 512.17 232.3 510.26 229.63 508.03C226.97 505.79 224.85 503.57 222.69 500.2C220.31 496.49 219.42 492.44 219.51 492.45C223.21 492.95 235.44 499.31 241.49 493.08C247.54 486.85 246.81 474.31 240.47 466.94C234.13 459.57 224.44 456.8 216.13 463.6C207.82 470.39 211.2 480.88 214.57 486.83C217.94 492.78 220.08 497.41 225.58 504.3C231.08 511.19 238.99 516.87 244.66 519.22C250.34 521.56 262.84 525.44 279.66 520.1C296.48 514.77 303.22 498.84 305.04 480.18C306.87 461.51 309.17 375.06 310.35 363.87C311.53 352.68 313.93 303.54 311.9 285.72C310.87 276.73 309.79 264.03 306.17 253.28C302.62 242.75 296.54 234.12 294.67 230.86C290.9 224.29 283.35 215.88 273.61 211.11C263.87 206.34 255.62 207.17 247.41 209.25C239.21 211.33 235.17 214.16 230.48 218.05C225.78 221.94 220.71 227.83 219.69 235.63C218.66 243.59 218.29 248.53 220.44 256.37C222.59 264.2 224.61 272.38 239.75 286.11C254.9 299.85 264.42 304.31 284.67 313.24C304.92 322.16 328.47 332.07 336.59 339.1C343.58 345.15 350.56 354.34 352.53 365.51C354.5 376.67 353.79 384.71 350.51 397.23C348.96 403.17 345.3 413.01 338.84 419.62C331.7 426.93 321.48 430.84 314.54 433.06C301.32 437.28 276.47 438.67 262.58 423.4C258.89 419.34 255.5 414.25 254.44 407.37C251.96 391.32 257.48 380.78 264.39 374.09C268.1 370.5 278.56 363.65 291.4 362.92C303.49 362.24 317.9 367.31 323.88 375.01C332.08 385.56 330.56 397.3 319.31 410.22C319.3 410.23 319.28 410.22 319.29 410.2C322.58 404.64 324.22 400.62 324.2 398.14Z" id="b1ktmBpLQK">
    </path>
  </defs>
  <g visibility="inherit">
    <g visibility="inherit">
      <g visibility="inherit">
        <use xlink:href="#b3t6IxN83l" opacity="1" fill="#000000" fill-opacity="1"></use>
        <g>
          <use xlink:href="#b3t6IxN83l" opacity="1" fill-opacity="0" stroke="#000000" stroke-width="1" stroke-opacity="1"></use>
        </g>
      </g>
      <g visibility="inherit">
        <use xlink:href="#b1ktmBpLQK" opacity="1" fill="#000000" fill-opacity="1"></use>
        <g>
          <use xlink:href="#b1ktmBpLQK" opacity="1" fill-opacity="0" stroke="#000000" stroke-width="1" stroke-opacity="1"></use>
        </g>
      </g>
    </g>
  </g>
</svg>
