<!-- Merges two icons in a FinOps project to represent a cloud billing team -->
<svg height="100%"
    viewBox="0 0 1024 1024"
    width="100%"
    xmlns="http://www.w3.org/2000/svg">
    <defs>
        <linearGradient gradientTransform="matrix(-608.026 -4.48702 4.38479 -686.95 889.29 1153.57)"
            gradientUnits="userSpaceOnUse"
            id="LinearGradient"
            x1="0"
            x2="1"
            y1="0"
            y2="0">
            <stop offset="0"
                stop-color="#ff00ce"/>
            <stop offset="0.3205"
                stop-color="#1e1e9a"/>
            <stop offset="0.6308"
                stop-color="#0086ff"/>
            <stop offset="1"
                stop-color="#14ca86"/>
        </linearGradient>
    </defs>
    <g id="Layer-1">
        <g opacity="1">
            <g opacity="1">
                <g opacity="1">
                    <path d="M836.444 429.934C850.664 370.264 819.914 320.074 832.484 322.714C810.644 160.664 671.914 35.694 503.884 35.694C388.134 35.694 286.254 94.994 226.904 184.864C119.064 217.294 40.4839 317.294 40.4839 435.704C40.4839 580.374 157.764 698.134 302.444 698.134C311.984 698.134 488.774 699.584 503.884 699.584C553.154 699.584 599.854 688.244 641.894 668.984C644.164 667.934 646.504 666.974 648.754 665.874C656.744 661.984 658.104 661.534 672.144 653.274C686.184 645.004 753.334 594.394 774.694 560.064C796.044 525.744 822.214 489.604 836.444 429.934Z"
                        fill="#0086ff"
                        fill-rule="nonzero"
                        opacity="1"
                        stroke="none"/>
                </g>
                <g opacity="1">
                    <path d="M242.384 256.584C238.444 267.874 235.344 279.304 232.934 290.714C280.164 262.294 340.604 254.494 398.294 274.634C498.274 309.534 552.664 415.064 519.544 509.924C511.664 532.494 499.454 552.884 483.274 570.434C483.204 570.514 482.664 571.124 482.594 571.204C481.074 572.984 461.054 595.334 424.444 612.234C420.304 610.974 416.174 609.684 412.054 608.244C382.344 597.874 355.554 582.894 332.164 564.454C376.684 563.094 417.934 534.854 433.464 490.374C453.594 432.724 423.024 369.434 365.404 349.324C313.754 331.294 257.704 353.954 232.104 400.274C225.154 364.824 225.104 327.634 232.934 290.714C198.404 311.544 171.004 343.304 157.014 383.374C145.084 417.564 144.084 454.334 154.214 489.644C171.324 549.234 219.664 581.284 280.234 602.434C296.864 608.244 302.984 628.704 297.184 645.334C291.394 661.934 267.274 662.814 250.644 657.004C170.554 629.044 115.704 586.714 92.9239 507.234C79.1439 459.224 80.4939 409.084 96.7939 362.384C123.994 284.454 188.264 229.424 264.374 208.744C255.734 223.674 248.304 239.624 242.384 256.584ZM763.774 438.604C726.124 546.474 628.234 616.204 520.894 623.194C526.014 618.344 529.234 614.784 530.534 613.294C552.504 589.394 569.074 561.664 579.794 530.954C624.494 402.904 552.514 260.924 419.374 214.444C367.264 196.254 313.414 195.404 264.464 208.704C329.544 96.504 467.024 42.544 594.054 86.884C738.074 137.164 814.044 294.604 763.774 438.604ZM373.284 469.374C364.744 493.834 337.874 506.794 313.414 498.254C288.984 489.724 276.024 462.864 284.564 438.394C293.104 413.934 319.954 401.004 344.384 409.534C368.854 418.074 381.814 444.944 373.284 469.374Z"
                        fill="#14ca86"
                        fill-rule="nonzero"
                        opacity="1"
                        stroke="none"/>
                </g>
                <g opacity="1">
                    <path d="M863.324 482.414C863.324 495.874 874.244 506.764 887.674 506.764C901.074 506.764 911.974 495.874 911.974 482.414C911.974 469.014 901.074 458.114 887.674 458.114C874.244 458.114 863.324 469.014 863.324 482.414ZM597.464 688.394C593.414 695.554 585.934 699.584 578.274 699.584C574.584 699.584 570.844 698.664 567.424 696.694C556.814 690.684 553.104 677.234 559.104 666.654C564.684 656.814 609.354 578.124 614.934 568.294C620.584 585.044 628.484 600.784 638.324 615.084C643.374 606.244 668.604 562.034 714.024 482.464C750.664 549.874 771.014 587.324 775.084 594.804C780.614 605.274 790.884 612.144 802.664 613.204C814.504 614.284 825.984 609.274 833.284 599.844C837.044 594.674 867.134 553.304 870.894 548.134C872.004 546.594 872.874 544.934 873.544 543.214C877.094 534.204 874.274 523.574 866.074 517.614C856.284 510.504 842.614 512.644 835.504 522.434C833.594 525.054 824.064 538.164 806.914 561.754L748.084 453.514C746.584 450.544 745.744 448.894 745.584 448.574C739.794 437.404 728.444 430.104 715.854 429.524C703.324 428.894 691.264 435.114 684.494 445.704C682.324 449.524 671.484 468.624 651.964 503.004C629.694 542.014 617.314 563.694 614.844 568.024C608.524 549.124 605.054 528.944 605.054 507.924C605.054 403.364 689.814 318.604 794.374 318.604C898.954 318.604 983.724 403.364 983.724 507.924C983.724 612.504 898.954 697.264 794.374 697.264C729.864 697.264 672.914 664.964 638.734 615.664C630.474 630.214 605.714 673.854 597.464 688.394Z"
                        fill="#ff00ce"
                        fill-rule="nonzero"
                        opacity="1"
                        stroke="none"/>
                </g>
                <path d="M757.014 582.704L751.424 589.074L745.684 595.294L739.794 601.364L733.744 607.284L727.544 613.054L721.204 618.664L714.724 624.114L708.094 629.394L701.334 634.514L694.444 639.454L687.414 644.234L680.264 648.824L673.134 653.164L671.934 652.164L668.554 649.214L665.244 646.184L662.004 643.084L658.834 639.904L655.754 636.644L652.734 633.324L649.804 629.924L646.954 626.464L644.174 622.924L641.484 619.324L638.884 615.664L638.784 615.844L637.674 614.244L635.414 610.854L633.234 607.414L631.124 603.924L629.084 600.384L627.124 596.804L625.234 593.164L623.424 589.484L621.694 585.764L620.044 582.004L618.464 578.194L616.974 574.344L615.564 570.454L614.934 568.564L615.084 568.294L615.514 569.544L615.954 570.794L616.394 572.044L616.844 573.284L617.304 574.524L617.774 575.764L618.254 576.994L618.744 578.214L619.234 579.444L619.734 580.664L620.244 581.874L620.764 583.084L621.294 584.294L621.824 585.494L622.374 586.694L622.924 587.884L623.484 589.074L624.044 590.254L624.624 591.434L625.204 592.614L625.794 593.784L626.394 594.944L627.004 596.104L627.614 597.264L628.234 598.414L628.864 599.564L629.504 600.704L630.144 601.834L630.804 602.974L631.464 604.094L632.124 605.224L632.804 606.334L633.484 607.444L634.174 608.554L634.874 609.654L635.574 610.754L636.294 611.844L637.014 612.924L637.734 614.004L638.474 615.084L714.174 482.464L764.024 574.184L762.434 576.204L762.434 576.204L757.014 582.704ZM802.374 318.774L803.154 318.814L808.114 319.114L808.294 319.124L809.274 319.204L810.254 319.284L811.234 319.374L812.204 319.464L813.184 319.554L814.154 319.654L815.134 319.764L816.104 319.874L817.074 319.994L818.044 320.114L819.004 320.244L819.974 320.374L820.934 320.504L821.894 320.644L822.854 320.794L823.814 320.944L824.774 321.094L825.734 321.254L826.684 321.414L827.634 321.584L828.594 321.764L829.544 321.934L830.484 322.124L831.434 322.304L832.374 322.494L833.324 322.694L833.394 323.204L833.454 323.714L833.524 324.214L833.594 324.724L833.654 325.234L833.724 325.744L833.794 326.254L833.854 326.764L833.914 327.274L833.984 327.784L834.044 328.294L834.104 328.804L834.164 329.314L834.224 329.834L834.284 330.344L834.344 330.854L834.404 331.364L834.464 331.874L834.524 332.394L834.574 332.904L834.634 333.414L834.684 333.924L834.744 334.444L834.794 334.954L834.844 335.464L834.904 335.984L834.954 336.494L835.004 337.014L835.044 337.524L835.094 338.044L835.144 338.554L835.184 339.074L835.234 339.584L835.274 340.104L835.324 340.624L835.364 341.134L835.404 341.654L835.444 342.174L835.484 342.694L835.514 343.214L835.544 343.574L835.574 343.944L835.594 344.314L835.624 344.684L835.644 345.054L835.674 345.424L835.694 345.794L835.724 346.164L835.744 346.534L835.774 346.904L835.794 347.274L835.814 347.644L835.844 348.014L835.864 348.384L835.884 348.754L835.904 349.124L835.934 349.494L835.954 349.864L835.974 350.234L835.994 350.604L836.014 350.974L836.034 351.344L836.054 351.714L836.064 352.094L836.084 352.464L836.104 352.834L836.124 353.204L836.134 353.574L836.154 353.944L836.174 354.324L836.184 354.694L836.204 355.064L836.214 355.434L836.224 355.814L836.244 356.184L836.254 356.554L836.264 356.934L836.284 357.304L836.294 357.674L836.304 358.054L836.304 358.284L836.314 358.514L836.324 358.744L836.324 358.984L836.334 359.214L836.334 359.444L836.344 359.674L836.344 359.914L836.354 360.144L836.354 360.374L836.364 360.614L836.364 360.844L836.374 361.074L836.374 361.304L836.384 361.544L836.384 361.774L836.394 362.004L836.394 362.244L836.394 362.474L836.404 362.704L836.404 362.944L836.404 363.174L836.414 363.404L836.414 363.644L836.414 363.874L836.424 364.104L836.424 364.344L836.424 364.574L836.424 364.804L836.434 365.044L836.434 365.274L836.434 365.514L836.434 365.744L836.434 365.974L836.434 366.214L836.434 366.444L836.434 366.684L836.434 366.914L836.434 367.144L836.444 367.384L836.314 376.484L835.954 385.524L835.344 394.504L834.504 403.424L833.424 412.264L832.124 421.034L830.584 429.724L828.834 438.334L826.854 446.864L824.654 455.304L822.244 463.664L819.624 471.924L816.784 480.094L813.754 488.164L810.514 496.134L807.074 503.994L803.444 511.754L799.614 519.394L795.594 526.934L791.784 533.654L748.234 453.514L745.724 448.574L745.284 447.744L744.824 446.924L744.334 446.124L743.834 445.344L743.304 444.574L742.764 443.814L742.204 443.074L741.624 442.354L741.024 441.654L740.414 440.964L739.784 440.294L739.134 439.644L738.474 439.004L737.794 438.394L737.094 437.794L736.394 437.214L735.664 436.644L734.934 436.104L734.184 435.584L733.414 435.074L732.634 434.594L731.854 434.134L731.044 433.684L730.234 433.264L729.414 432.864L728.574 432.484L727.734 432.124L726.884 431.784L726.014 431.464L725.144 431.174L724.264 430.904L723.374 430.654L722.474 430.434L721.564 430.224L720.654 430.054L719.734 429.894L718.814 429.764L717.884 429.664L716.944 429.584L716.004 429.524L715.064 429.494L714.124 429.484L713.194 429.494L712.264 429.534L711.334 429.604L710.414 429.694L709.494 429.814L708.574 429.954L707.674 430.114L706.764 430.294L705.874 430.504L704.984 430.744L704.094 430.994L703.224 431.274L702.354 431.574L701.494 431.904L700.654 432.244L699.814 432.614L698.984 432.994L698.164 433.404L697.354 433.834L696.554 434.294L695.764 434.764L694.994 435.254L694.234 435.764L693.484 436.294L692.754 436.854L692.034 437.424L691.324 438.014L690.634 438.624L689.954 439.244L689.294 439.894L688.654 440.554L688.024 441.244L687.414 441.944L686.824 442.654L686.254 443.394L685.694 444.144L685.154 444.914L684.634 445.704L652.114 503.004L614.994 568.024L614.524 566.604L614.064 565.184L613.614 563.754L613.184 562.314L612.754 560.874L612.344 559.434L611.934 557.984L611.544 556.534L611.164 555.074L610.794 553.614L610.434 552.154L610.094 550.684L609.754 549.204L609.434 547.724L609.114 546.244L608.814 544.754L608.524 543.264L608.244 541.774L607.984 540.274L607.724 538.774L607.484 537.264L607.254 535.754L607.034 534.234L606.824 532.714L606.634 531.194L606.454 529.664L606.284 528.134L606.124 526.604L605.974 525.064L605.844 523.524L605.724 521.984L605.614 520.434L605.514 518.884L605.434 517.324L605.364 515.764L605.304 514.204L605.264 512.634L605.224 511.074L605.204 509.494L605.204 507.924L605.364 500.124L605.834 492.394L606.604 484.764L607.684 477.214L609.044 469.774L610.704 462.424L612.644 455.194L614.854 448.084L617.334 441.094L620.084 434.234L623.084 427.504L626.334 420.924L629.834 414.484L633.564 408.194L637.534 402.074L641.734 396.114L646.144 390.324L650.774 384.714L655.614 379.294L660.654 374.054L665.894 369.014L671.314 364.174L676.924 359.544L682.714 355.134L688.674 350.934L694.794 346.964L701.084 343.234L707.524 339.734L714.104 336.484L720.834 333.484L727.694 330.734L734.684 328.254L741.794 326.044L749.024 324.104L756.374 322.444L763.814 321.084L771.364 320.004L778.994 319.234L786.724 318.764L794.514 318.604L794.544 318.604L801.714 318.744L801.714 318.744L802.374 318.774Z"
                    fill="#1e1e9a"
                    fill-rule="nonzero"
                    opacity="1"
                    stroke="none"/>
            </g>
            <g fill="url(#LinearGradient)"
                opacity="1"
                stroke="none">
                <path d="M60.6601 936.688L61.2017 741.689L188.401 742.042L188.281 785.242L112.682 785.032L112.578 822.232L177.378 822.412L177.258 865.611L112.458 865.431L112.26 936.831L60.6601 936.688Z"/>
                <path d="M217.259 937.123L217.676 787.123L269.276 787.267L268.859 937.266L217.259 937.123ZM243.528 768.595C235.528 768.573 228.935 766.105 223.748 761.19C218.562 756.276 215.979 750.119 215.999 742.719C216.021 735.119 218.638 728.926 223.851 724.14C229.064 719.355 235.671 716.973 243.671 716.995C251.871 717.018 258.514 719.437 263.601 724.251C268.688 729.065 271.22 735.272 271.199 742.872C271.179 750.272 268.612 756.415 263.498 761.301C258.384 766.186 251.728 768.618 243.528 768.595Z"/>
                <path d="M303.659 937.363L304.076 787.363L346.076 787.48L349.626 805.49L350.826 805.493C356.842 799.71 363.706 794.679 371.418 790.4C379.13 786.122 388.085 783.997 398.285 784.025C414.885 784.071 426.82 789.654 434.089 800.775C441.358 811.895 444.967 826.755 444.915 845.355L444.659 937.754L393.059 937.611L393.297 851.811C393.324 842.212 392.142 835.808 389.75 832.602C387.359 829.395 383.564 827.784 378.364 827.77C373.564 827.757 369.561 828.745 366.356 830.737C363.15 832.728 359.542 835.518 355.532 839.107L355.259 937.506L303.659 937.363Z"/>
                <path d="M564.648 941.688C546.648 941.638 530.86 937.544 517.282 929.406C503.705 921.268 493.137 909.589 485.579 894.368C478.022 879.147 474.272 860.836 474.332 839.437C474.391 818.037 478.242 799.897 485.883 785.018C493.524 770.14 504.156 758.819 517.777 751.057C531.399 743.295 547.21 739.439 565.21 739.489C583.21 739.539 598.999 743.482 612.577 751.32C626.155 759.158 636.724 770.537 644.282 785.458C651.841 800.379 655.591 818.54 655.531 839.94C655.472 861.34 651.621 879.629 643.979 894.808C636.336 909.987 625.704 921.607 612.082 929.67C598.459 937.732 582.648 941.738 564.648 941.688ZM564.771 897.288C572.571 897.31 579.328 894.978 585.041 890.294C590.754 885.61 595.122 878.972 598.146 870.381C601.17 861.789 602.699 851.593 602.731 839.793C602.764 827.993 601.292 817.939 598.315 809.631C595.338 801.323 591.006 794.96 585.318 790.545C579.63 786.129 572.886 783.91 565.086 783.888C557.286 783.867 550.53 786.048 544.818 790.432C539.106 794.816 534.738 801.154 531.715 809.446C528.692 817.737 527.164 827.783 527.132 839.583C527.099 851.383 528.57 861.587 531.547 870.196C534.523 878.804 538.854 885.466 544.541 890.182C550.228 894.898 556.971 897.266 564.771 897.288Z"/>
                <path d="M685.711 991.224L686.274 788.425L728.274 788.542L731.836 802.352L733.036 802.355C738.65 797.171 745.012 792.988 752.121 789.808C759.23 786.628 766.484 785.048 773.884 785.068C785.684 785.101 795.925 788.28 804.608 794.604C813.29 800.928 820.015 809.797 824.784 821.21C829.552 832.623 831.915 846.03 831.872 861.43C831.824 878.63 828.784 893.271 822.75 905.355C816.716 917.438 808.941 926.616 799.423 932.89C789.906 939.164 779.847 942.286 769.247 942.256C763.047 942.239 757.101 940.922 751.408 938.307C745.715 935.691 740.476 931.976 735.689 927.163L737.426 949.968L737.311 991.368L685.711 991.224ZM756.764 900.221C760.764 900.232 764.467 899.043 767.874 896.652C771.281 894.262 773.992 890.269 776.007 884.675C778.023 879.08 779.044 871.483 779.071 861.883C779.093 853.683 778.312 847.031 776.726 841.927C775.14 836.822 772.801 833.066 769.707 830.657C766.614 828.248 762.767 827.038 758.167 827.025C754.367 827.014 750.865 827.805 747.661 829.396C744.456 830.987 741.149 833.778 737.737 837.768L737.584 892.968C740.577 895.576 743.722 897.435 747.019 898.544C750.316 899.653 753.564 900.212 756.764 900.221Z"/>
                <path d="M904.247 942.631C894.647 942.604 884.502 940.626 873.813 936.697C863.124 932.767 853.888 927.691 846.105 921.47L868.994 889.733C875.98 894.752 882.519 898.521 888.612 901.038C894.705 903.554 900.352 904.82 905.552 904.835C910.952 904.85 914.804 904.11 917.108 902.617C919.412 901.123 920.568 898.876 920.577 895.876C920.584 893.276 919.24 891.023 916.546 889.115C913.851 887.208 910.306 885.448 905.91 883.836C901.515 882.223 896.82 880.41 891.825 878.396C886.032 875.98 880.24 872.914 874.451 869.198C868.661 865.482 863.824 860.719 859.94 854.908C856.056 849.097 854.126 842.092 854.149 833.892C854.19 819.092 859.723 807.307 870.747 798.538C881.771 789.768 896.084 785.408 913.683 785.457C926.083 785.491 936.728 787.571 945.616 791.695C954.505 795.82 962.242 800.392 968.828 805.41L945.943 835.947C940.554 831.932 935.263 828.817 930.069 826.602C924.875 824.388 919.978 823.274 915.378 823.262C910.978 823.249 907.677 823.89 905.473 825.184C903.269 826.478 902.163 828.625 902.155 831.625C902.148 834.225 903.442 836.378 906.037 838.086C908.632 839.793 912.078 841.402 916.374 842.914C920.67 844.426 925.315 846.089 930.31 847.903C936.304 850.12 942.246 853.036 948.136 856.653C954.026 860.269 958.913 864.983 962.797 870.793C966.68 876.604 968.61 884.01 968.585 893.01C968.559 902.41 966.085 910.853 961.165 918.339C956.244 925.826 949.027 931.755 939.515 936.129C930.003 940.503 918.247 942.67 904.247 942.631Z"/>
            </g>
        </g>
    </g>
</svg>
